<?xml version="1.0" standalone="no"?>
<!DOCTYPE svg PUBLIC "-//W3C//DTD SVG 20010904//EN"
 "http://www.w3.org/TR/2001/REC-SVG-20010904/DTD/svg10.dtd">
<svg version="1.0" xmlns="http://www.w3.org/2000/svg"
 width="224.000000pt" height="162.000000pt" viewBox="0 0 224.000000 162.000000"
 preserveAspectRatio="xMidYMid meet">

<g transform="translate(0.000000,162.000000) scale(0.100000,-0.100000)"
fill="#000000" stroke="none">
<path d="M927 1497 c-9 -30 -17 -57 -17 -60 0 -4 30 -7 66 -7 63 0 65 1 58 23
-27 87 -31 92 -60 95 -28 3 -31 0 -47 -51z"/>
<path d="M860 1389 c0 -6 9 -13 21 -16 16 -5 19 -12 17 -40 -3 -33 -7 -36
-102 -78 l-99 -45 7 40 6 40 -45 0 c-42 0 -58 -11 -35 -25 6 -3 10 -22 10 -41
0 -28 -5 -36 -26 -44 -14 -6 -149 -10 -310 -10 -277 0 -284 0 -284 -20 0 -20
7 -20 901 -20 597 0 898 -3 894 -10 -4 -7 -315 -10 -901 -10 -589 0 -894 -3
-894 -10 0 -5 7 -10 15 -10 9 0 15 -9 15 -24 0 -15 7 -26 20 -29 20 -5 21 -11
18 -171 l-3 -166 43 0 c40 0 42 1 42 31 0 28 2 30 33 27 27 -2 33 -8 35 -30 3
-24 8 -28 33 -28 26 0 29 3 29 30 0 28 3 30 35 30 32 0 35 -2 35 -30 0 -27 3
-30 29 -30 25 0 30 4 33 28 2 22 8 28 36 30 30 3 32 1 32 -27 0 -29 3 -31 36
-31 33 0 35 2 32 28 -3 25 0 27 32 27 32 0 35 -2 32 -27 l-3 -28 85 0 85 0 3
28 c2 22 8 28 36 30 30 3 32 1 32 -27 0 -29 3 -31 35 -31 32 0 35 2 35 31 0
28 2 30 33 27 27 -2 33 -8 35 -30 3 -24 8 -28 33 -28 26 0 29 3 29 30 0 28 3
30 35 30 32 0 35 -2 35 -30 l0 -30 75 0 75 0 0 31 c0 28 2 30 33 27 27 -2 33
-8 35 -30 l3 -28 115 0 114 0 0 30 c0 28 3 30 35 30 32 0 35 -2 35 -30 0 -28
2 -30 40 -30 38 0 40 2 40 31 0 28 2 30 33 27 28 -3 32 -7 32 -30 -1 -16 3
-28 7 -28 4 0 8 -7 8 -15 0 -13 -105 -15 -885 -15 l-885 0 0 -30 c0 -24 4 -30
21 -30 19 0 20 -5 17 -100 l-3 -100 157 0 157 0 3 72 c3 69 4 73 30 82 18 7
35 6 53 -2 23 -11 25 -16 25 -82 l0 -70 158 -1 c86 -1 301 -5 477 -8 l320 -7
-478 -2 -478 -2 3 -72 3 -73 580 0 580 0 3 165 c3 180 6 190 62 190 54 0 60
-20 60 -200 l0 -163 46 7 c26 3 107 6 180 6 l134 0 0 385 c0 378 0 385 20 385
38 0 21 37 -44 94 l-63 56 -359 1 c-197 1 -370 4 -384 8 -20 5 -26 14 -28 44
-2 21 1 37 7 37 6 0 11 7 11 15 0 11 -12 15 -45 15 -32 0 -45 -4 -45 -14 0 -8
5 -16 11 -18 6 -2 9 -13 7 -25 -3 -20 -7 -19 -98 21 -93 42 -95 43 -98 79 -2
28 1 37 12 37 9 0 16 7 16 15 0 12 -19 15 -110 15 -73 0 -110 -4 -110 -11z
m-632 -396 c2 -9 -7 -13 -27 -13 -30 0 -39 9 -24 24 11 10 46 3 51 -11z m126
11 c22 -8 10 -24 -19 -24 -27 0 -42 16 -23 23 19 8 24 8 42 1z m144 -11 c2 -9
-7 -13 -27 -13 -30 0 -39 9 -24 24 11 10 46 3 51 -11z m130 0 c2 -9 -7 -13
-27 -13 -30 0 -39 9 -24 24 11 10 46 3 51 -11z m240 0 c2 -9 -7 -13 -27 -13
-30 0 -39 9 -24 24 11 10 46 3 51 -11z m130 0 c2 -9 -7 -13 -27 -13 -30 0 -39
9 -24 24 11 10 46 3 51 -11z m130 0 c2 -9 -7 -13 -27 -13 -30 0 -39 9 -24 24
11 10 46 3 51 -11z m220 0 c2 -9 -7 -13 -27 -13 -30 0 -39 9 -24 24 11 10 46
3 51 -11z m310 0 c2 -9 -7 -13 -27 -13 -32 0 -50 15 -29 24 21 8 51 2 56 -11z
m140 0 c2 -9 -7 -13 -27 -13 -30 0 -39 9 -24 24 11 10 46 3 51 -11z m-1558
-37 c0 -15 -25 -24 -52 -18 -34 7 -20 32 17 32 23 0 35 -5 35 -14z m130 0 c0
-15 -25 -24 -52 -18 -34 7 -20 32 17 32 23 0 35 -5 35 -14z m130 0 c0 -18 -22
-26 -49 -19 -35 9 -25 33 14 33 23 0 35 -5 35 -14z m133 0 c4 -9 -1 -16 -11
-18 -29 -6 -62 4 -62 18 0 19 66 19 73 0z m237 0 c0 -15 -25 -24 -52 -18 -34
7 -20 32 17 32 23 0 35 -5 35 -14z m140 0 c0 -15 -25 -24 -52 -18 -34 7 -20
32 17 32 23 0 35 -5 35 -14z m130 0 c0 -15 -25 -24 -52 -18 -34 7 -20 32 17
32 23 0 35 -5 35 -14z m220 0 c0 -15 -25 -24 -52 -18 -34 7 -20 32 17 32 23 0
35 -5 35 -14z m300 0 c0 -15 -25 -24 -52 -18 -34 7 -20 32 17 32 23 0 35 -5
35 -14z m150 0 c0 -15 -25 -24 -52 -18 -34 7 -20 32 17 32 23 0 35 -5 35 -14z
m-1610 -111 c0 -60 -3 -75 -15 -75 -12 0 -15 15 -15 75 0 60 3 75 15 75 12 0
15 -15 15 -75z m40 0 c0 -60 -3 -75 -15 -75 -12 0 -15 15 -15 75 0 60 3 75 15
75 12 0 15 -15 15 -75z m90 0 c0 -60 -3 -75 -15 -75 -12 0 -15 15 -15 75 0 60
3 75 15 75 12 0 15 -15 15 -75z m40 0 c0 -60 -3 -75 -15 -75 -12 0 -15 15 -15
75 0 60 3 75 15 75 12 0 15 -15 15 -75z m130 2 l0 -73 -35 -1 -35 -1 0 74 0
74 35 0 35 0 0 -73z m100 -3 c0 -63 -3 -75 -16 -72 -12 2 -16 18 -17 76 -2 63
0 72 16 72 15 0 17 -10 17 -76z m30 11 c0 -36 0 -68 1 -72 0 -4 -4 -9 -10 -11
-7 -2 -11 23 -11 72 0 44 4 76 10 76 6 0 10 -28 10 -65z m240 -9 l0 -74 -35 0
-35 0 0 74 0 74 35 0 35 0 0 -74z m100 -1 c0 -60 -3 -75 -15 -75 -12 0 -15 15
-15 75 0 60 3 75 15 75 12 0 15 -15 15 -75z m40 0 c0 -60 -3 -75 -15 -75 -12
0 -15 15 -15 75 0 60 3 75 15 75 12 0 15 -15 15 -75z m90 0 c0 -60 -3 -75 -15
-75 -12 0 -15 15 -15 75 0 60 3 75 15 75 12 0 15 -15 15 -75z m40 0 c0 -60 -3
-75 -15 -75 -12 0 -15 15 -15 75 0 60 3 75 15 75 12 0 15 -15 15 -75z m180 0
c0 -60 -3 -75 -15 -75 -12 0 -15 15 -15 75 0 60 3 75 15 75 12 0 15 -15 15
-75z m40 0 c0 -60 -3 -75 -15 -75 -12 0 -15 15 -15 75 0 60 3 75 15 75 12 0
15 -15 15 -75z m260 0 c0 -60 -3 -75 -15 -75 -12 0 -15 15 -15 75 0 60 3 75
15 75 12 0 15 -15 15 -75z m40 0 c0 -60 -3 -75 -15 -75 -12 0 -15 15 -15 75 0
60 3 75 15 75 12 0 15 -15 15 -75z m110 0 c0 -60 -3 -75 -15 -75 -12 0 -15 15
-15 75 0 60 3 75 15 75 12 0 15 -15 15 -75z m38 3 c-2 -46 -7 -73 -15 -76 -10
-3 -13 16 -13 72 0 62 3 76 15 76 13 0 15 -12 13 -72z"/>
<path d="M833 845 c0 -33 2 -45 4 -27 2 18 2 45 0 60 -2 15 -4 0 -4 -33z"/>
<path d="M89 385 c0 -3 0 -35 -1 -72 l0 -68 156 -3 156 -3 0 76 0 75 -155 0
c-85 0 -155 -2 -156 -5z"/>
</g>
</svg>
